<svg xmlns="http://www.w3.org/2000/svg" width="491.123" height="100.97" viewBox="0 0 491.123 100.97">
  <g id="Group_5" data-name="Group 5" transform="translate(-315.095 0)">
    <path id="Path_41" data-name="Path 41" d="M368.677,316.783a26.471,26.471,0,0,1-14.309-3.994,27.466,27.466,0,0,1-10.062-11.427,38.736,38.736,0,0,1-3.716-17.519,40.541,40.541,0,0,1,4.3-18.96,32.029,32.029,0,0,1,29.123-17.646,33.831,33.831,0,0,1,8.519,1.112,27.153,27.153,0,0,1,6.7,2.553V233c0-1.39,0-2.73.076-3.994.051-1.264.152-2.756.329-4.5-1.567.076-3.11.177-4.626.253s-3.059.177-4.626.253v-5.486A56.318,56.318,0,0,0,389.23,219a18.433,18.433,0,0,0,4.753-1.315,9.333,9.333,0,0,0,2.528-1.694h3.767v84.816c0,1.39-.051,2.781-.126,4.171s-.227,2.958-.379,4.7c1.567-.076,3.11-.177,4.626-.253s3.059-.177,4.626-.253v7.584H390.291c-.253-1.315-.3-4.6-.43-5.688s-.227-2.149-.329-3.211a26.659,26.659,0,0,1-8.975,6.472,28.294,28.294,0,0,1-11.831,2.427Zm4.677-6.4A17.486,17.486,0,0,0,382,307.91a23.728,23.728,0,0,0,7.2-6.143c-.076-1.036-.126-2.149-.126-3.337v-3.843l.126-37.643a21.241,21.241,0,0,0-6.826-3.463,26.648,26.648,0,0,0-7.609-1.112,17.68,17.68,0,0,0-11.3,3.792,23.14,23.14,0,0,0-7.281,10.592,43.073,43.073,0,0,0-2.2,15.952,46.376,46.376,0,0,0,2.528,14.258,22.846,22.846,0,0,0,6.5,9.859,15.374,15.374,0,0,0,10.34,3.59Z" transform="translate(-25.495 -215.838)" fill="#d89211"/>
    <path id="Path_42" data-name="Path 42" d="M400.262,297.881a32.569,32.569,0,0,1-16.508-4.247A31.419,31.419,0,0,1,372,281.879a33.611,33.611,0,0,1-4.348-17.191,39.6,39.6,0,0,1,4.3-18.556,33.477,33.477,0,0,1,11.7-12.994,30.029,30.029,0,0,1,16.634-4.778,31.723,31.723,0,0,1,16.508,4.373,33.162,33.162,0,0,1,11.831,11.831,32.732,32.732,0,0,1,4.424,16.988,38.859,38.859,0,0,1-4.348,18.354,34.39,34.39,0,0,1-11.755,13.121,29.866,29.866,0,0,1-16.635,4.829Zm1.036-5.233c4.6,0,8.241-1.315,10.921-3.919a22.227,22.227,0,0,0,5.789-10.188,48.922,48.922,0,0,0,1.744-13.2,60.928,60.928,0,0,0-1.112-11.578,39.9,39.9,0,0,0-3.438-10.314,20.418,20.418,0,0,0-6.042-7.382,14.613,14.613,0,0,0-8.9-2.756,15.786,15.786,0,0,0-11.048,3.918,22.983,22.983,0,0,0-6.295,10.188,43.812,43.812,0,0,0-2.022,13.449,52.494,52.494,0,0,0,2.2,15.345,28,28,0,0,0,6.75,11.831,15.451,15.451,0,0,0,11.452,4.576Z" transform="translate(15.854 -196.936)" fill="#d89211"/>
    <path id="Path_43" data-name="Path 43" d="M427.986,297.881a33.149,33.149,0,0,1-16.053-3.994,29.751,29.751,0,0,1-11.7-11.5q-4.361-7.508-4.348-18.1a36.476,36.476,0,0,1,2.477-13.2,38.7,38.7,0,0,1,6.952-11.553,33.045,33.045,0,0,1,10.719-8.166,31.443,31.443,0,0,1,13.778-3.008,32.255,32.255,0,0,1,12.666,2.225,20.859,20.859,0,0,1,8.393,5.89,12.348,12.348,0,0,1,2.983,7.963,7.85,7.85,0,0,1-1.567,4.9,5.411,5.411,0,0,1-4.55,2.022c-2.174.076-3.716-.581-4.626-2.022a7.466,7.466,0,0,1-1.365-3.868,10.078,10.078,0,0,1,.379-2.68,5.857,5.857,0,0,1,1.567-2.553,8,8,0,0,0-3.64-4.652,16.341,16.341,0,0,0-5.385-1.972,29.993,29.993,0,0,0-4.626-.455,18.819,18.819,0,0,0-14.89,7.129q-6.029,7.129-6.042,20.7a40.413,40.413,0,0,0,2.806,15.547,24.816,24.816,0,0,0,7.862,10.643,18.76,18.76,0,0,0,11.7,3.843,22.952,22.952,0,0,0,11.7-3.261,26.132,26.132,0,0,0,8.722-7.963l3.388,2.6a29.909,29.909,0,0,1-8.115,8.873,33.9,33.9,0,0,1-9.758,4.955,31.841,31.841,0,0,1-9.43,1.567Z" transform="translate(58.991 -196.936)" fill="#d89211"/>
    <path id="Path_44" data-name="Path 44" d="M453.087,297.806a31.237,31.237,0,0,1-16.179-4.247,30.136,30.136,0,0,1-11.376-12.008A38.272,38.272,0,0,1,421.36,263.2a36.91,36.91,0,0,1,4.1-17.115,33.612,33.612,0,0,1,11.5-12.868,30.439,30.439,0,0,1,17.165-4.9,28.914,28.914,0,0,1,10.213,1.77,23.248,23.248,0,0,1,8.393,5.359,25.2,25.2,0,0,1,5.713,9.025,35.433,35.433,0,0,1,2.073,12.741l-45.758.784a63.316,63.316,0,0,0,2.149,17.443c1.441,5.005,3.741,8.873,6.952,11.629s7.331,4.121,12.362,4.121a25.655,25.655,0,0,0,8.267-1.441,33.123,33.123,0,0,0,7.862-3.918,23.5,23.5,0,0,0,5.84-5.486l3.109,2.6a29.133,29.133,0,0,1-8.444,8.747,35.618,35.618,0,0,1-10.137,4.7,36.2,36.2,0,0,1-9.632,1.441Zm-17.949-45.353H468.28a30.239,30.239,0,0,0-1.365-9.076,15.82,15.82,0,0,0-4.475-7.18,11.759,11.759,0,0,0-8.191-2.806,18,18,0,0,0-12.539,4.5Q436.705,242.4,435.138,252.453Z" transform="translate(97.925 -197.013)" fill="#d89211"/>
    <path id="Path_45" data-name="Path 45" d="M447.358,310.681c2.68,0,4.55-.683,5.587-2.022a10.261,10.261,0,0,0,1.82-5.612c.177-2.4.253-5.157.253-8.292V232.944c0-1.39,0-2.73.076-3.994.051-1.264.152-2.756.329-4.5-1.567.076-3.109.177-4.626.253s-3.059.177-4.626.253v-5.486a57.268,57.268,0,0,0,8.9-.531,18.308,18.308,0,0,0,4.8-1.315,9.332,9.332,0,0,0,2.528-1.694h3.767l.126,84.816c0,1.744-.051,3.286-.126,4.652a38.966,38.966,0,0,1-.531,4.247c1.39-.076,2.755-.152,4.1-.2s2.705-.1,4.1-.2v7.609H447.282v-6.168Z" transform="translate(135.836 -215.93)" fill="#d89211"/>
    <path id="Path_46" data-name="Path 46" d="M489.967,297.806a31.3,31.3,0,0,1-16.179-4.247,30.136,30.136,0,0,1-11.376-12.008A38.272,38.272,0,0,1,458.24,263.2a36.91,36.91,0,0,1,4.1-17.115,33.612,33.612,0,0,1,11.5-12.868A30.439,30.439,0,0,1,491,228.31a28.813,28.813,0,0,1,10.213,1.77,23.248,23.248,0,0,1,8.393,5.359,25.2,25.2,0,0,1,5.713,9.025,35.433,35.433,0,0,1,2.073,12.741l-45.758.784a63.316,63.316,0,0,0,2.149,17.443c1.441,5.005,3.741,8.873,6.952,11.629s7.331,4.121,12.362,4.121a25.655,25.655,0,0,0,8.267-1.441,33.123,33.123,0,0,0,7.862-3.918,23.5,23.5,0,0,0,5.84-5.486l3.109,2.6a29.132,29.132,0,0,1-8.444,8.747,35.618,35.618,0,0,1-10.137,4.7,36.2,36.2,0,0,1-9.632,1.441Zm-17.545-45.353h33.143a30.239,30.239,0,0,0-1.365-9.076,15.819,15.819,0,0,0-4.475-7.18,11.759,11.759,0,0,0-8.191-2.806,18,18,0,0,0-12.539,4.5Q473.99,242.4,472.422,252.453Z" transform="translate(154.28 -197.013)" fill="#d89211"/>
    <path id="Path_47" data-name="Path 47" d="M484.305,298v-6.168c2.68,0,4.55-.683,5.587-2.022a10.261,10.261,0,0,0,1.82-5.612c.177-2.4.253-5.157.253-8.292l.126-29.806c0-1.39,0-2.781.076-4.171a33.071,33.071,0,0,1,.455-4.323c-1.567.076-3.109.177-4.626.253s-3.059.177-4.626.253v-5.486a52.178,52.178,0,0,0,8.646-.531,14.639,14.639,0,0,0,4.348-1.315,11.045,11.045,0,0,0,2.351-1.694h3.767c.076.607.152,1.315.2,2.1s.1,1.643.2,2.6c.076.961.126,2.048.126,3.261a39.555,39.555,0,0,1,6.295-4.449,35.757,35.757,0,0,1,7.281-3.135,25.8,25.8,0,0,1,7.609-1.188q11.3,0,16.508,7.129t5.208,22.146v24.294c0,1.744,0,3.286-.076,4.652a37.425,37.425,0,0,1-.455,4.247c1.39-.076,2.756-.152,4.1-.2s2.705-.1,4.1-.2v7.609H527.055v-6.168c2.7,0,4.55-.683,5.587-2.022a10.261,10.261,0,0,0,1.82-5.612c.177-2.4.253-5.157.253-8.292v-18.3Q534.6,246.33,531,240.566c-2.376-3.843-6.143-5.713-11.25-5.612a20.8,20.8,0,0,0-9.177,2.477,23.747,23.747,0,0,0-7.483,6.017,21.974,21.974,0,0,1,.126,2.351v2.756l-.126,33.32c0,1.744,0,3.286-.076,4.652a32.864,32.864,0,0,1-.455,4.247c1.391-.076,2.756-.152,4.1-.2s2.705-.1,4.1-.2v7.609H484.229Z" transform="translate(192.679 -197.059)" fill="#d89211"/>
    <path id="Path_48" data-name="Path 48" d="M542.877,297.866a31.3,31.3,0,0,1-16.18-4.247,30.134,30.134,0,0,1-11.376-12.008,38.272,38.272,0,0,1-4.171-18.354,36.909,36.909,0,0,1,4.1-17.115,33.613,33.613,0,0,1,11.5-12.868,30.439,30.439,0,0,1,17.165-4.9,28.812,28.812,0,0,1,10.213,1.77,23.248,23.248,0,0,1,8.393,5.359,25.2,25.2,0,0,1,5.713,9.025,35.433,35.433,0,0,1,2.073,12.741l-45.757.784a63.326,63.326,0,0,0,2.149,17.443c1.441,5.005,3.741,8.873,6.952,11.629s7.331,4.121,12.362,4.121a25.655,25.655,0,0,0,8.267-1.441,33.116,33.116,0,0,0,7.862-3.918,23.5,23.5,0,0,0,5.84-5.486l3.109,2.6a29.13,29.13,0,0,1-8.444,8.747,35.62,35.62,0,0,1-10.137,4.7,36.2,36.2,0,0,1-9.632,1.441Zm-17.949-45.353h33.143a30.243,30.243,0,0,0-1.365-9.076,15.818,15.818,0,0,0-4.475-7.18,11.759,11.759,0,0,0-8.191-2.806,18,18,0,0,0-12.539,4.5Q526.5,242.464,524.928,252.513Z" transform="translate(235.128 -196.921)" fill="#d89211"/>
  </g>
</svg>
