<svg xmlns="http://www.w3.org/2000/svg" width="909.742" height="430.292" viewBox="0 0 909.742 430.292">
  <g id="Group_4" data-name="Group 4" transform="translate(-505.432 -457.742)">
    <g id="logoAreaGroup" transform="translate(228.483 180.92)">
      <g id="logo" transform="translate(276.949 276.823)">
        <path id="Path_41" data-name="Path 41" d="M368.677,316.783a26.471,26.471,0,0,1-14.309-3.994,27.466,27.466,0,0,1-10.062-11.427,38.736,38.736,0,0,1-3.716-17.519,40.541,40.541,0,0,1,4.3-18.96,32.029,32.029,0,0,1,29.123-17.646,33.831,33.831,0,0,1,8.519,1.112,27.153,27.153,0,0,1,6.7,2.553V233c0-1.39,0-2.73.076-3.994.051-1.264.152-2.756.329-4.5-1.567.076-3.11.177-4.626.253s-3.059.177-4.626.253v-5.486A56.318,56.318,0,0,0,389.23,219a18.433,18.433,0,0,0,4.753-1.315,9.333,9.333,0,0,0,2.528-1.694h3.767v84.816c0,1.39-.051,2.781-.126,4.171s-.227,2.958-.379,4.7c1.567-.076,3.11-.177,4.626-.253s3.059-.177,4.626-.253v7.584H390.291c-.253-1.315-.3-4.6-.43-5.688s-.227-2.149-.329-3.211a26.659,26.659,0,0,1-8.975,6.472,28.294,28.294,0,0,1-11.831,2.427Zm4.677-6.4A17.486,17.486,0,0,0,382,307.91a23.728,23.728,0,0,0,7.2-6.143c-.076-1.036-.126-2.149-.126-3.337v-3.843l.126-37.643a21.241,21.241,0,0,0-6.826-3.463,26.648,26.648,0,0,0-7.609-1.112,17.68,17.68,0,0,0-11.3,3.792,23.14,23.14,0,0,0-7.281,10.592,43.073,43.073,0,0,0-2.2,15.952,46.376,46.376,0,0,0,2.528,14.258,22.846,22.846,0,0,0,6.5,9.859,15.374,15.374,0,0,0,10.34,3.59Z" transform="translate(-25.495 -215.838)" fill="#d89211"/>
        <path id="Path_42" data-name="Path 42" d="M400.262,297.881a32.569,32.569,0,0,1-16.508-4.247A31.419,31.419,0,0,1,372,281.879a33.611,33.611,0,0,1-4.348-17.191,39.6,39.6,0,0,1,4.3-18.556,33.477,33.477,0,0,1,11.7-12.994,30.029,30.029,0,0,1,16.634-4.778,31.723,31.723,0,0,1,16.508,4.373,33.162,33.162,0,0,1,11.831,11.831,32.732,32.732,0,0,1,4.424,16.988,38.859,38.859,0,0,1-4.348,18.354,34.39,34.39,0,0,1-11.755,13.121,29.866,29.866,0,0,1-16.635,4.829Zm1.036-5.233c4.6,0,8.241-1.315,10.921-3.919a22.227,22.227,0,0,0,5.789-10.188,48.922,48.922,0,0,0,1.744-13.2,60.928,60.928,0,0,0-1.112-11.578,39.9,39.9,0,0,0-3.438-10.314,20.418,20.418,0,0,0-6.042-7.382,14.613,14.613,0,0,0-8.9-2.756,15.786,15.786,0,0,0-11.048,3.918,22.983,22.983,0,0,0-6.295,10.188,43.812,43.812,0,0,0-2.022,13.449,52.494,52.494,0,0,0,2.2,15.345,28,28,0,0,0,6.75,11.831,15.451,15.451,0,0,0,11.452,4.576Z" transform="translate(15.854 -196.936)" fill="#d89211"/>
        <path id="Path_43" data-name="Path 43" d="M427.986,297.881a33.149,33.149,0,0,1-16.053-3.994,29.751,29.751,0,0,1-11.7-11.5q-4.361-7.508-4.348-18.1a36.476,36.476,0,0,1,2.477-13.2,38.7,38.7,0,0,1,6.952-11.553,33.045,33.045,0,0,1,10.719-8.166,31.443,31.443,0,0,1,13.778-3.008,32.255,32.255,0,0,1,12.666,2.225,20.859,20.859,0,0,1,8.393,5.89,12.348,12.348,0,0,1,2.983,7.963,7.85,7.85,0,0,1-1.567,4.9,5.411,5.411,0,0,1-4.55,2.022c-2.174.076-3.716-.581-4.626-2.022a7.466,7.466,0,0,1-1.365-3.868,10.078,10.078,0,0,1,.379-2.68,5.857,5.857,0,0,1,1.567-2.553,8,8,0,0,0-3.64-4.652,16.341,16.341,0,0,0-5.385-1.972,29.993,29.993,0,0,0-4.626-.455,18.819,18.819,0,0,0-14.89,7.129q-6.029,7.129-6.042,20.7a40.413,40.413,0,0,0,2.806,15.547,24.816,24.816,0,0,0,7.862,10.643,18.76,18.76,0,0,0,11.7,3.843,22.952,22.952,0,0,0,11.7-3.261,26.132,26.132,0,0,0,8.722-7.963l3.388,2.6a29.909,29.909,0,0,1-8.115,8.873,33.9,33.9,0,0,1-9.758,4.955,31.841,31.841,0,0,1-9.43,1.567Z" transform="translate(58.991 -196.936)" fill="#d89211"/>
        <path id="Path_44" data-name="Path 44" d="M453.087,297.806a31.237,31.237,0,0,1-16.179-4.247,30.136,30.136,0,0,1-11.376-12.008A38.272,38.272,0,0,1,421.36,263.2a36.91,36.91,0,0,1,4.1-17.115,33.612,33.612,0,0,1,11.5-12.868,30.439,30.439,0,0,1,17.165-4.9,28.914,28.914,0,0,1,10.213,1.77,23.248,23.248,0,0,1,8.393,5.359,25.2,25.2,0,0,1,5.713,9.025,35.433,35.433,0,0,1,2.073,12.741l-45.758.784a63.316,63.316,0,0,0,2.149,17.443c1.441,5.005,3.741,8.873,6.952,11.629s7.331,4.121,12.362,4.121a25.655,25.655,0,0,0,8.267-1.441,33.123,33.123,0,0,0,7.862-3.918,23.5,23.5,0,0,0,5.84-5.486l3.109,2.6a29.133,29.133,0,0,1-8.444,8.747,35.618,35.618,0,0,1-10.137,4.7,36.2,36.2,0,0,1-9.632,1.441Zm-17.949-45.353H468.28a30.239,30.239,0,0,0-1.365-9.076,15.82,15.82,0,0,0-4.475-7.18,11.759,11.759,0,0,0-8.191-2.806,18,18,0,0,0-12.539,4.5Q436.705,242.4,435.138,252.453Z" transform="translate(97.925 -197.013)" fill="#d89211"/>
        <path id="Path_45" data-name="Path 45" d="M447.358,310.681c2.68,0,4.55-.683,5.587-2.022a10.261,10.261,0,0,0,1.82-5.612c.177-2.4.253-5.157.253-8.292V232.944c0-1.39,0-2.73.076-3.994.051-1.264.152-2.756.329-4.5-1.567.076-3.109.177-4.626.253s-3.059.177-4.626.253v-5.486a57.268,57.268,0,0,0,8.9-.531,18.308,18.308,0,0,0,4.8-1.315,9.332,9.332,0,0,0,2.528-1.694h3.767l.126,84.816c0,1.744-.051,3.286-.126,4.652a38.966,38.966,0,0,1-.531,4.247c1.39-.076,2.755-.152,4.1-.2s2.705-.1,4.1-.2v7.609H447.282v-6.168Z" transform="translate(135.836 -215.93)" fill="#d89211"/>
        <path id="Path_46" data-name="Path 46" d="M489.967,297.806a31.3,31.3,0,0,1-16.179-4.247,30.136,30.136,0,0,1-11.376-12.008A38.272,38.272,0,0,1,458.24,263.2a36.91,36.91,0,0,1,4.1-17.115,33.612,33.612,0,0,1,11.5-12.868A30.439,30.439,0,0,1,491,228.31a28.813,28.813,0,0,1,10.213,1.77,23.248,23.248,0,0,1,8.393,5.359,25.2,25.2,0,0,1,5.713,9.025,35.433,35.433,0,0,1,2.073,12.741l-45.758.784a63.316,63.316,0,0,0,2.149,17.443c1.441,5.005,3.741,8.873,6.952,11.629s7.331,4.121,12.362,4.121a25.655,25.655,0,0,0,8.267-1.441,33.123,33.123,0,0,0,7.862-3.918,23.5,23.5,0,0,0,5.84-5.486l3.109,2.6a29.132,29.132,0,0,1-8.444,8.747,35.618,35.618,0,0,1-10.137,4.7,36.2,36.2,0,0,1-9.632,1.441Zm-17.545-45.353h33.143a30.239,30.239,0,0,0-1.365-9.076,15.819,15.819,0,0,0-4.475-7.18,11.759,11.759,0,0,0-8.191-2.806,18,18,0,0,0-12.539,4.5Q473.99,242.4,472.422,252.453Z" transform="translate(154.28 -197.013)" fill="#d89211"/>
        <path id="Path_47" data-name="Path 47" d="M484.305,298v-6.168c2.68,0,4.55-.683,5.587-2.022a10.261,10.261,0,0,0,1.82-5.612c.177-2.4.253-5.157.253-8.292l.126-29.806c0-1.39,0-2.781.076-4.171a33.071,33.071,0,0,1,.455-4.323c-1.567.076-3.109.177-4.626.253s-3.059.177-4.626.253v-5.486a52.178,52.178,0,0,0,8.646-.531,14.639,14.639,0,0,0,4.348-1.315,11.045,11.045,0,0,0,2.351-1.694h3.767c.076.607.152,1.315.2,2.1s.1,1.643.2,2.6c.076.961.126,2.048.126,3.261a39.555,39.555,0,0,1,6.295-4.449,35.757,35.757,0,0,1,7.281-3.135,25.8,25.8,0,0,1,7.609-1.188q11.3,0,16.508,7.129t5.208,22.146v24.294c0,1.744,0,3.286-.076,4.652a37.425,37.425,0,0,1-.455,4.247c1.39-.076,2.756-.152,4.1-.2s2.705-.1,4.1-.2v7.609H527.055v-6.168c2.7,0,4.55-.683,5.587-2.022a10.261,10.261,0,0,0,1.82-5.612c.177-2.4.253-5.157.253-8.292v-18.3Q534.6,246.33,531,240.566c-2.376-3.843-6.143-5.713-11.25-5.612a20.8,20.8,0,0,0-9.177,2.477,23.747,23.747,0,0,0-7.483,6.017,21.974,21.974,0,0,1,.126,2.351v2.756l-.126,33.32c0,1.744,0,3.286-.076,4.652a32.864,32.864,0,0,1-.455,4.247c1.391-.076,2.756-.152,4.1-.2s2.705-.1,4.1-.2v7.609H484.229Z" transform="translate(192.679 -197.059)" fill="#d89211"/>
        <path id="Path_48" data-name="Path 48" d="M542.877,297.866a31.3,31.3,0,0,1-16.18-4.247,30.134,30.134,0,0,1-11.376-12.008,38.272,38.272,0,0,1-4.171-18.354,36.909,36.909,0,0,1,4.1-17.115,33.613,33.613,0,0,1,11.5-12.868,30.439,30.439,0,0,1,17.165-4.9,28.812,28.812,0,0,1,10.213,1.77,23.248,23.248,0,0,1,8.393,5.359,25.2,25.2,0,0,1,5.713,9.025,35.433,35.433,0,0,1,2.073,12.741l-45.757.784a63.326,63.326,0,0,0,2.149,17.443c1.441,5.005,3.741,8.873,6.952,11.629s7.331,4.121,12.362,4.121a25.655,25.655,0,0,0,8.267-1.441,33.116,33.116,0,0,0,7.862-3.918,23.5,23.5,0,0,0,5.84-5.486l3.109,2.6a29.13,29.13,0,0,1-8.444,8.747,35.62,35.62,0,0,1-10.137,4.7,36.2,36.2,0,0,1-9.632,1.441Zm-17.949-45.353h33.143a30.243,30.243,0,0,0-1.365-9.076,15.818,15.818,0,0,0-4.475-7.18,11.759,11.759,0,0,0-8.191-2.806,18,18,0,0,0-12.539,4.5Q526.5,242.464,524.928,252.513Z" transform="translate(235.128 -196.921)" fill="#d89211"/>
        <path id="c" d="M866.416,373.658c9.834,1.669,69.167-4.778,104.332-39.817,0,0,83.375-69.091,145.16,35.115,1.011,1.719,9.784,7.812,9.784,7.812s-48.538-117.883-160.1-47.805a3.794,3.794,0,0,0-.581.506c-3.666,3.817-48.715,49.4-101.6,38.477-14.738-3.034-95.383-59.586-211.85-7.281a31.521,31.521,0,0,1-16.685,2.528c-20.4-2.376-81.4-22.146-102.639-52.331-5.739-8.166-14.587-10.871-24.5-11.629-8.7-.657-60.142-11.326-83.021-28.415-4.854-3.615-7.053-11.629-10.466-16.66-8.848-13.1-8.52-36.758-190.412-14.486L215.95,246.8s160.834-31.853,192.637,8.064a19,19,0,0,1,3.994,9.177c.733,5.334,10.744,23.89,109.212,43.1,0,0,28.086,48.058,112.447,63.075a29.892,29.892,0,0,0,18.126-2.5c26.115-12.539,112.8-46.668,201.713,1.77a50.406,50.406,0,0,0,8.975,3.817" transform="translate(-215.95 -193.662)" fill="#d89211"/>
        <path id="Path_49" data-name="Path 49" d="M375.99,233.709a1.5,1.5,0,0,0,1.719-1.542c0-.455.051-.986.051-1.593V218.591c0-.3.025-.607.051-.86l-.91.051c-.3,0-.607.025-.91.051v-1.112c.91,0,1.82-.025,2.781-.051h2.907a13.058,13.058,0,0,1,4.146.556,5.589,5.589,0,0,1,2.579,1.669,4.464,4.464,0,0,1,.961,2.73,6.066,6.066,0,0,1-.3,2.073,5.383,5.383,0,0,1-1.264,2.048,6.658,6.658,0,0,1-2.6,1.542,13.567,13.567,0,0,1-4.3.581h-.379a3.734,3.734,0,0,1-.531-.025v4.879a3.915,3.915,0,0,1-.076.834,7.642,7.642,0,0,0,.784-.051c.253-.025.506-.025.784-.051a4.081,4.081,0,0,0,.784-.051v1.138h-6.244v-.834Zm3.969-6.927q.493.038.834.076h.834a6.183,6.183,0,0,0,2.654-.581,4.684,4.684,0,0,0,1.921-1.643,4.451,4.451,0,0,0,.708-2.553,4.937,4.937,0,0,0-.379-2.048,3.088,3.088,0,0,0-1.087-1.365,4.395,4.395,0,0,0-1.669-.758,9.453,9.453,0,0,0-2.149-.253,1.65,1.65,0,0,0-1.239.379,1.677,1.677,0,0,0-.379,1.062c0,.455-.051.986-.051,1.593v6.093Z" transform="translate(28.598 -214.799)" fill="#d89211"/>
        <path id="Path_50" data-name="Path 50" d="M381.14,234.813v-.834a1.515,1.515,0,0,0,1.163-.4,2.979,2.979,0,0,0,.683-1.112c.177-.48.379-1.036.632-1.669l5.258-14.283h.607L395.171,231q.19.531.455,1.365a3.88,3.88,0,0,1,.2,1.416c.278,0,.581-.025.859-.051.278,0,.581-.025.86-.051v1.112h-5.84v-.834a1.512,1.512,0,0,0,1.264-.43,1.256,1.256,0,0,0,.227-.961,3.945,3.945,0,0,0-.253-1.011l-.885-2.4-6.623.152-.885,2.73a10.1,10.1,0,0,1-.329.961c-.1.227-.2.506-.329.784.329,0,.683-.025,1.011-.051s.657-.025.986-.051v1.112H381.14Zm4.677-6.6h5.89l-1.82-4.879c-.177-.531-.379-1.036-.581-1.567s-.379-1.036-.581-1.567h-.051c-.177.48-.354.961-.531,1.416-.177.48-.354.961-.556,1.441l-1.82,5.132Z" transform="translate(36.467 -215.044)" fill="#d89211"/>
        <path id="Path_51" data-name="Path 51" d="M398.01,222.345a6.7,6.7,0,0,0-.581-2.326,4.608,4.608,0,0,0-1.466-1.795,4.215,4.215,0,0,0-2.477-.683,3.208,3.208,0,0,0-2.427.885,2.984,2.984,0,0,0-.834,2.1,2.707,2.707,0,0,0,.607,1.795,5.417,5.417,0,0,0,1.593,1.264c.657.354,1.34.708,2.073,1.062.632.278,1.289.607,1.947.935a9.649,9.649,0,0,1,1.77,1.138,5.194,5.194,0,0,1,1.264,1.517,4.51,4.51,0,0,1,.48,2.1,4.456,4.456,0,0,1-.708,2.5,4.677,4.677,0,0,1-2.022,1.719,7.769,7.769,0,0,1-3.236.632,8.954,8.954,0,0,1-2.376-.329,8.107,8.107,0,0,1-2.174-.961l.126,1.087h-1.315l-.152-5.435h.986a4.538,4.538,0,0,0,1.542,3.413,5.243,5.243,0,0,0,3.438,1.163,4.551,4.551,0,0,0,1.846-.379,3.161,3.161,0,0,0,1.34-1.087,3.02,3.02,0,0,0,.506-1.744,3.06,3.06,0,0,0-.607-1.921,5.161,5.161,0,0,0-1.593-1.315,22.761,22.761,0,0,0-2.073-1.062c-.657-.278-1.289-.581-1.921-.91a9.123,9.123,0,0,1-1.719-1.112,4.411,4.411,0,0,1-1.719-3.59,4.989,4.989,0,0,1,.228-1.416,4.454,4.454,0,0,1,.809-1.466,4.127,4.127,0,0,1,1.567-1.138,6.6,6.6,0,0,1,2.553-.455,10.237,10.237,0,0,1,2.174.278,5.889,5.889,0,0,1,2.25,1.036l-.1-1.087h1.289v5.612h-.91Z" transform="translate(47.103 -215.013)" fill="#d89211"/>
        <path id="Path_52" data-name="Path 52" d="M407.648,222.09a9.653,9.653,0,0,0-.3-2.5,2.53,2.53,0,0,0-.986-1.492,3.519,3.519,0,0,0-2.022-.48h-2.174v13.879c0,.455-.025.86-.051,1.188a3.919,3.919,0,0,1-.076.834c.354,0,.708-.025,1.062-.051.354,0,.708-.025,1.062-.051v1.112h-5.991v-.834a1.766,1.766,0,0,0,1.315-.455,1.83,1.83,0,0,0,.379-1.112c.025-.455.051-.986.051-1.567V217.641h-2.6a2.512,2.512,0,0,0-2.275,1.087,6.36,6.36,0,0,0-.657,3.337h-.935l.152-5.385h14.865l.152,5.385h-.961Z" transform="translate(55.262 -214.784)" fill="#d89211"/>
        <path id="Path_53" data-name="Path 53" d="M409.1,227.924a3.034,3.034,0,0,0-.3-1.593,1.318,1.318,0,0,0-.961-.581,12.188,12.188,0,0,0-1.77-.051l-1.871.076v7a3.511,3.511,0,0,1-.076.809l4.879-.076a5.036,5.036,0,0,0,1.947-.379,2.457,2.457,0,0,0,1.264-1.213,5.158,5.158,0,0,0,.455-2.376h.86l-.152,4.98H400.23v-.834a1.5,1.5,0,0,0,1.719-1.542c0-.455.051-.986.051-1.593V218.571c0-.3.025-.607.051-.859l-.91.051c-.3,0-.607.025-.91.051V216.7h12.261l.126,4.449h-.834a4.511,4.511,0,0,0-.455-2.275,2.16,2.16,0,0,0-1.239-1.036,5.384,5.384,0,0,0-1.744-.253l-2.2.051a2.027,2.027,0,0,0-1.34.354,1.549,1.549,0,0,0-.506.986,14.122,14.122,0,0,0-.1,1.694v4.07H409l-.177-2.174h1.112v5.359H409.1Z" transform="translate(65.638 -214.753)" fill="#d89211"/>
        <path id="Path_54" data-name="Path 54" d="M406.515,234.523v-.834a1.5,1.5,0,0,0,1.719-1.542c0-.455.051-.986.051-1.593V218.571c0-.3.025-.607.051-.86l-.91.051c-.3,0-.607.025-.91.051V216.7h5.739v.834a1.706,1.706,0,0,0-1.315.43,1.678,1.678,0,0,0-.4,1.087c-.025.455-.051.986-.051,1.593v12.084a3.51,3.51,0,0,1-.076.809l4.753-.076a3.016,3.016,0,0,0,2.427-1.011,5.018,5.018,0,0,0,.834-3.236h.859l-.152,5.284H406.49Z" transform="translate(75.203 -214.753)" fill="#d89211"/>
        <path id="Path_55" data-name="Path 55" d="M411.88,234.813v-.834a1.515,1.515,0,0,0,1.163-.4,2.978,2.978,0,0,0,.682-1.112c.177-.48.379-1.036.632-1.669l5.258-14.283h.607L425.911,231q.19.531.455,1.365a3.88,3.88,0,0,1,.2,1.416c.278,0,.581-.025.859-.051.3,0,.582-.025.859-.051v1.112h-5.84v-.834a1.513,1.513,0,0,0,1.264-.43,1.256,1.256,0,0,0,.228-.961,3.95,3.95,0,0,0-.253-1.011l-.885-2.4-6.623.152-.885,2.73a10.141,10.141,0,0,1-.329.961c-.1.227-.2.506-.329.784.329,0,.683-.025,1.011-.051s.657-.025.986-.051v1.112H411.88Zm4.677-6.6h5.89l-1.82-4.879c-.177-.531-.379-1.036-.581-1.567s-.379-1.036-.582-1.567h-.051c-.177.48-.354.961-.531,1.416-.177.48-.354.961-.556,1.441l-1.82,5.132Z" transform="translate(83.439 -215.044)" fill="#d89211"/>
        <path id="Path_56" data-name="Path 56" d="M418.861,234.553v-.834a1.724,1.724,0,0,0,1.315-.455,1.764,1.764,0,0,0,.4-1.087c.025-.455.025-.986.025-1.593v-11c0-.329,0-.657.025-.986,0-.3.025-.607.051-.86l-.91.051c-.3,0-.607.025-.91.051v-1.112c.961,0,1.921-.025,2.882-.051.986,0,1.947,0,2.932.025a11.607,11.607,0,0,1,3.994.581,4.673,4.673,0,0,1,2.225,1.542,4.1,4.1,0,0,1,.708,2.427,5.3,5.3,0,0,1-.379,2.022,4.235,4.235,0,0,1-1.416,1.845,6.694,6.694,0,0,1-2.958,1.213,3.793,3.793,0,0,1,.885.91c.253.354.556.809.859,1.289l1.744,2.73c.278.455.581.859.834,1.239a3.328,3.328,0,0,0,.935.859,2.663,2.663,0,0,0,1.315.329v.834h-3.211a8.451,8.451,0,0,1-1.239-1.315c-.329-.43-.682-.935-1.036-1.492l-1.719-2.73c-.228-.354-.48-.758-.758-1.239a5.641,5.641,0,0,0-.961-1.188h-1.744v6.118a3.914,3.914,0,0,1-.076.834c.2,0,.4-.025.607-.025a2.462,2.462,0,0,0,.607-.051h.607v1.112h-5.638Zm5.562-8.924a7.183,7.183,0,0,0,2.452-.455,3.56,3.56,0,0,0,1.668-1.289,4.05,4.05,0,0,0,.607-2.351,4.956,4.956,0,0,0-.278-1.694,2.909,2.909,0,0,0-.834-1.213,3.954,3.954,0,0,0-1.416-.733,8.092,8.092,0,0,0-2.048-.253,1.815,1.815,0,0,0-1.315.379,1.558,1.558,0,0,0-.4,1.062c-.025.455-.051.986-.051,1.593v4.9a7.642,7.642,0,0,1,.784.051c.253.025.506,0,.809,0Z" transform="translate(93.952 -214.784)" fill="#d89211"/>
        <path id="Path_57" data-name="Path 57" d="M430.884,217.54a1.706,1.706,0,0,0-1.315.43,1.678,1.678,0,0,0-.4,1.087c-.025.455-.051.986-.051,1.593v12.008a3.914,3.914,0,0,1-.076.834c.3,0,.607-.025.91-.051s.607-.025.91-.051V234.5H425.12v-.834a1.724,1.724,0,0,0,1.315-.455,1.763,1.763,0,0,0,.4-1.087c.025-.455.025-.986.025-1.593v-11c0-.329,0-.657.025-.986,0-.3.025-.607.051-.859l-.91.051c-.3,0-.607.025-.91.051V216.68h5.739v.834Z" transform="translate(103.671 -214.784)" fill="#d89211"/>
        <path id="Path_58" data-name="Path 58" d="M427.906,234.813v-.834a1.515,1.515,0,0,0,1.163-.4,2.978,2.978,0,0,0,.682-1.112c.177-.48.379-1.036.632-1.669l5.258-14.283h.607L441.936,231q.19.531.455,1.365a3.88,3.88,0,0,1,.2,1.416c.278,0,.581-.025.859-.051s.582-.025.859-.051v1.112h-5.84v-.834a1.479,1.479,0,0,0,1.264-.43,1.256,1.256,0,0,0,.228-.961,3.949,3.949,0,0,0-.253-1.011l-.885-2.4-6.623.152-.885,2.73a10.141,10.141,0,0,1-.329.961c-.1.227-.2.506-.329.784.329,0,.683-.025,1.011-.051s.657-.025.986-.051v1.112H427.88Zm4.677-6.6h5.89l-1.82-4.879c-.177-.531-.379-1.036-.581-1.567s-.379-1.036-.582-1.567h-.051c-.177.48-.354.961-.531,1.416-.177.48-.354.961-.556,1.441l-1.82,5.132Z" transform="translate(107.888 -215.044)" fill="#d89211"/>
      </g>
    </g>
    <g id="DoceleneLogoMini" transform="translate(564.178 522.914)">
      <g id="Group_3" data-name="Group 3">
        <path id="Path_77" data-name="Path 77" d="M392.04,353.69a18.885,18.885,0,0,1-10.15-2.81,19.573,19.573,0,0,1-7.15-8.07,27.355,27.355,0,0,1-2.63-12.36,28.441,28.441,0,0,1,3.04-13.38,22.728,22.728,0,0,1,20.66-12.45,23.893,23.893,0,0,1,6.04.78,19.249,19.249,0,0,1,4.75,1.8V294.56c0-.98.01-1.92.05-2.81s.11-1.95.23-3.18c-1.11.06-2.2.12-3.27.19l-3.27.18v-3.87a39.954,39.954,0,0,0,6.27-.37,12.826,12.826,0,0,0,3.37-.92,6.536,6.536,0,0,0,1.8-1.2h2.68v59.87c0,.98-.03,1.97-.09,2.95s-.15,2.09-.28,3.32q1.665-.09,3.27-.18c1.07-.06,2.17-.12,3.27-.18v5.35h-13.3c-.18-.92-.22-3.24-.31-4.01s-.17-1.52-.23-2.26a18.861,18.861,0,0,1-6.37,4.57,20.135,20.135,0,0,1-8.39,1.71Zm3.32-4.52a12.319,12.319,0,0,0,6.13-1.75,17.22,17.22,0,0,0,5.12-4.33c-.06-.74-.09-1.52-.09-2.35v-2.72l.09-26.57a15.225,15.225,0,0,0-4.84-2.44,18.859,18.859,0,0,0-5.4-.78,12.605,12.605,0,0,0-8.03,2.68,16.279,16.279,0,0,0-5.17,7.47,30.245,30.245,0,0,0-1.57,11.25,32.253,32.253,0,0,0,1.8,10.06,16.032,16.032,0,0,0,4.61,6.96,10.97,10.97,0,0,0,7.33,2.54Z" fill="#d89211"/>
        <path id="Path_78" data-name="Path 78" d="M414.46,342.79c1.71,0,2.91-.43,3.57-1.29a6.545,6.545,0,0,0,1.16-3.57c.11-1.52.16-3.28.16-5.28v-39.3c0-.88.02-1.73.04-2.53s.1-1.76.21-2.87c-1,.06-1.98.11-2.95.17s-1.95.11-2.95.17V284.8a37.769,37.769,0,0,0,5.69-.33,11.8,11.8,0,0,0,3.07-.83,5.841,5.841,0,0,0,1.62-1.08h2.41l.08,53.92c0,1.11-.03,2.09-.08,2.95a24.905,24.905,0,0,1-.34,2.7c.89-.06,1.76-.1,2.62-.12s1.73-.07,2.62-.13v4.84H414.42l.02-3.93Z" fill="#d89211"/>
        <path id="b" d="M426.59,364.64c1.55.26,10.88-.75,16.4-6.23,0,0,13.11-10.81,22.82,5.49a11.338,11.338,0,0,0,1.54,1.22s-7.63-18.44-25.17-7.48a.345.345,0,0,0-.09.08c-.57.6-7.66,7.73-15.97,6.02-2.32-.48-14.99-9.32-33.31-1.14a5.017,5.017,0,0,1-2.62.4c-3.21-.37-12.8-3.46-16.14-8.19a4.791,4.791,0,0,0-3.85-1.82c-1.37-.1-9.46-1.77-13.05-4.45-.76-.57-1.11-1.82-1.65-2.61-1.39-2.05-1.34-5.75-29.94-2.27l-1.24,1.11s25.29-4.98,30.29,1.26a2.93,2.93,0,0,1,.63,1.44c.11.83,1.69,3.74,17.17,6.74,0,0,4.42,7.52,17.68,9.86a4.744,4.744,0,0,0,2.85-.39c4.11-1.96,17.73-7.3,31.71.28a7.663,7.663,0,0,0,1.41.6" fill="#d89211"/>
      </g>
    </g>
  </g>
</svg>
